<svg width="237" height="67" viewBox="0 0 237 67" version="1.1" xmlns="http://www.w3.org/2000/svg" xmlns:xlink="http://www.w3.org/1999/xlink">
<g id="Canvas" fill="none">
<g id="AppStore">
<g id="Group">
<g id="Vector">
<path fill-rule="evenodd" clip-rule="evenodd" d="M 229.701 65.3442C 233.018 65.3442 235.549 62.7393 235.549 59.6489L 235.549 6.69529C 235.549 3.61667 232.905 1 229.701 1L 6.84746 1C 3.64346 1 1 3.61666 1 6.69529L 1 59.6489C 1 62.8376 3.63144 65.3442 6.84746 65.3442L 229.701 65.3442Z" transform="translate(0.451172 0)" fill="black"/>
<path fill-rule="evenodd" clip-rule="evenodd" d="M 229.701 65.3442C 233.018 65.3442 235.549 62.7393 235.549 59.6489L 235.549 6.69529C 235.549 3.61667 232.905 1 229.701 1L 6.84746 1C 3.64346 1 1 3.61666 1 6.69529L 1 59.6489C 1 62.8376 3.63144 65.3442 6.84746 65.3442L 229.701 65.3442Z" stroke-width="2" stroke-miterlimit="8" transform="translate(0.451172 0)" stroke="white"/>
</g>
<g id="Vector_2">
<path d="M 30.8943 12.8192C 30.8943 7.21954 35.6253 4.54143 35.7498 4.4197C 33.0108 0.645992 28.9023 0.0373295 27.4083 0.0373295C 23.9224 -0.327868 20.5609 2.10678 18.6934 2.10678C 16.8259 2.10678 14.0869 0.03733 11.2234 0.159062C 7.36394 0.159062 3.87795 2.35025 1.88596 5.75876C -2.09802 12.5758 0.88997 22.5578 4.74945 28.0358C 6.61694 30.7139 8.98243 33.7572 11.8459 33.6355C 14.7094 33.5138 15.8299 31.8095 19.3159 31.8095C 22.8019 31.8095 23.7979 33.6355 26.7858 33.5138C 29.8983 33.5138 31.8903 30.8356 33.6333 28.0358C 35.8743 24.9925 36.7458 21.9492 36.7458 21.7057C 36.8703 21.7057 31.0188 19.5145 30.8943 12.8192Z" transform="translate(21.4735 20.0486)" fill="white"/>
</g>
<g id="Vector_3">
<path d="M 6.78533 7.06048C 8.27933 5.11276 9.39982 2.55638 9.15082 -1.16093e-07C 6.90983 0.121732 4.04635 1.46079 2.42785 3.40851C 1.05836 4.99103 -0.311135 7.66915 0.0623628 10.2255C 2.55235 10.3473 5.16684 9.0082 6.78533 7.06048Z" transform="translate(39.9797 9.25146)" fill="white"/>
</g>
<g id="Vector_4">
<path d="M 20.1689 23.1292L 16.0604 23.1292L 13.8194 16.3121L 6.10047 16.3121L 3.98398 23.1292L -1.89971e-06 23.1292L 7.59446 9.28745e-07L 12.3254 9.28745e-07L 20.1689 23.1292ZM 13.1969 13.5123L 11.2049 7.42568C 10.9559 6.81702 10.5824 5.35623 9.95995 3.04331L 9.83545 3.04331C 9.58645 4.01717 9.21295 5.47796 8.71495 7.42568L 6.72297 13.5123L 13.1969 13.5123Z" transform="translate(74.0305 30.0679)" fill="white"/>
</g>
<g id="Vector_5">
<path d="M 16.3094 8.52127C 16.3094 11.3211 15.5624 13.634 13.9439 15.2166C 12.5744 16.6773 10.8314 17.4077 8.71496 17.4077C 6.47397 17.4077 4.85548 16.6773 3.85948 15.0948L 3.85948 23.8596L 0.124499 23.8596L 0.124499 5.84316C 0.124499 4.01717 0.124501 2.19118 1.89971e-06 0.365197L 3.36148 0.365197L 3.61049 3.04331L 3.73498 3.04331C 4.97998 1.09559 6.97196 9.28745e-07 9.46195 9.28745e-07C 11.4539 9.28745e-07 13.1969 0.730395 14.4419 2.31292C 15.5624 3.89544 16.3094 5.96489 16.3094 8.52127ZM 12.4499 8.643C 12.4499 7.06048 12.0764 5.72143 11.3294 4.62583C 10.4579 3.53024 9.46195 2.92158 8.09246 2.92158C 7.09647 2.92158 6.34947 3.28678 5.60247 3.77371C 4.85548 4.38237 4.35747 5.23449 4.10848 6.20835C 3.85948 6.69528 3.85948 7.06048 3.85948 7.42568L 3.85948 10.1038C 3.85948 11.3211 4.23298 12.295 4.97998 13.1471C 5.72697 13.9992 6.72297 14.3644 7.96796 14.3644C 9.33746 14.3644 10.4579 13.8775 11.3294 12.7819C 12.0764 11.808 12.4499 10.3473 12.4499 8.643Z" transform="translate(97.4362 36.1545)" fill="white"/>
</g>
<g id="Vector_6">
<path d="M 16.4339 8.52127C 16.4339 11.3211 15.6869 13.634 14.0684 15.2166C 12.6989 16.6773 10.9559 17.4077 8.83945 17.4077C 6.59847 17.4077 4.97997 16.6773 3.98398 15.0948L 3.85948 15.0948L 3.85948 23.8596L 0.124497 23.8596L 0.124497 5.84316C 0.124497 4.01717 0.124499 2.19118 0 0.365197L 3.36148 0.365197L 3.61048 3.04331L 3.73498 3.04331C 4.97998 1.09559 6.97196 9.28745e-07 9.46195 9.28745e-07C 11.4539 9.28745e-07 13.1969 0.730395 14.4419 2.31292C 15.8114 3.89544 16.4339 5.96489 16.4339 8.52127ZM 12.5744 8.643C 12.5744 7.06048 12.2009 5.72143 11.4539 4.62583C 10.5824 3.53024 9.58645 2.92158 8.21696 2.92158C 7.22096 2.92158 6.47397 3.28678 5.72697 3.77371C 4.97997 4.38237 4.48198 5.23449 4.23298 6.20835C 4.10848 6.69528 4.10848 7.06048 4.10848 7.30395L 4.10848 10.1038C 4.10848 11.3211 4.48197 12.295 5.22897 13.1471C 5.97597 13.9992 6.97196 14.3644 8.21696 14.3644C 9.58645 14.3644 10.707 13.8775 11.5784 12.7819C 12.2009 11.808 12.5744 10.3473 12.5744 8.643Z" transform="translate(116.858 36.1545)" fill="white"/>
</g>
<g id="Vector_7">
<path d="M 14.6909 16.9208C 14.6909 18.8685 13.9439 20.4511 12.5744 21.6684C 11.0804 23.0074 8.83946 23.7378 6.10047 23.7378C 3.61048 23.7378 1.49399 23.2509 0 22.277L 0.871492 19.2337C 2.48998 20.2076 4.35748 20.6945 6.34947 20.6945C 7.71896 20.6945 8.83946 20.3293 9.71096 19.7207C 10.458 19.112 10.9559 18.2599 10.9559 17.1643C 10.9559 16.1904 10.5824 15.46 9.95995 14.8514C 9.33745 14.2427 8.21696 13.634 6.72297 13.0254C 2.61449 11.5646 0.497999 9.25167 0.497999 6.45182C 0.497999 4.5041 1.24499 3.04331 2.61449 1.82599C 4.10848 0.608662 5.97597 0 8.34145 0C 10.4579 0 12.3254 0.365197 13.6949 1.09559L 12.6989 4.1389C 11.3294 3.40851 9.83545 3.04331 8.21696 3.04331C 6.84746 3.04331 5.85147 3.40851 5.10447 4.01717C 4.48198 4.62583 4.10848 5.2345 4.10848 6.08662C 4.10848 7.06048 4.48197 7.79088 5.22897 8.39954C 5.85147 9.0082 6.97197 9.49513 8.71496 10.2255C 10.7069 11.0777 12.2009 11.9298 13.1969 13.0254C 14.3174 13.8775 14.6909 15.2166 14.6909 16.9208Z" transform="translate(140.513 29.8245)" fill="white"/>
</g>
<g id="Vector_8">
<path d="M 10.3334 6.93875L 6.10047 6.93875L 6.10047 14.9731C 6.10047 17.0425 6.84747 18.0164 8.34146 18.0164C 8.96396 18.0164 9.58645 18.0164 10.0844 17.8947L 10.209 20.6945C 9.46196 20.938 8.46595 21.0597 7.22096 21.0597C 5.72696 21.0597 4.60648 20.5728 3.73499 19.7207C 2.86349 18.8685 2.49 17.286 2.49 15.2166L 2.49 6.81702L -1.89971e-06 6.81702L -1.89971e-06 4.1389L 2.49 4.1389L 2.49 1.09559L 6.22498 4.64373e-07L 6.22498 4.1389L 10.4579 4.1389L 10.4579 6.93875L 10.3334 6.93875Z" transform="translate(157.445 32.3809)" fill="white"/>
</g>
<g id="Vector_9">
<path d="M 16.6829 8.39954C 16.6829 10.9559 15.9359 13.0254 14.4419 14.7296C 12.8234 16.4339 10.8314 17.286 8.21696 17.286C 5.72697 17.286 3.73497 16.4339 2.24098 14.8514C 0.746989 13.2688 7.59884e-06 11.1994 7.59884e-06 8.76474C 7.59884e-06 6.20836 0.746989 4.01717 2.24098 2.43465C 3.73497 0.730394 5.85146 -9.28745e-07 8.46595 -9.28745e-07C 10.9559 -9.28745e-07 12.9479 0.852126 14.4419 2.43465C 15.9359 3.89544 16.6829 5.96489 16.6829 8.39954ZM 12.8234 8.52127C 12.8234 6.93875 12.4499 5.72142 11.8274 4.62583C 11.0805 3.28677 9.95994 2.67811 8.46595 2.67811C 6.97196 2.67811 5.72698 3.28677 4.97998 4.62583C 4.35749 5.72142 3.98398 7.06048 3.98398 8.64301C 3.98398 10.2255 4.35749 11.4429 4.97998 12.5384C 5.85148 13.8775 6.97196 14.4862 8.46595 14.4862C 9.95994 14.4862 11.0805 13.7558 11.8274 12.4167C 12.4499 11.4429 12.8234 10.1038 12.8234 8.52127Z" transform="translate(169.895 36.2761)" fill="white"/>
</g>
<g id="Vector_10">
<path d="M 9.21295 3.65198C 8.83945 3.53024 8.46595 3.53024 7.96795 3.53024C 6.59846 3.53024 5.60246 4.01717 4.85547 4.99103C 4.23297 5.84316 3.85949 6.93875 3.85949 8.27781L 3.85949 17.0425L 0.124507 17.0425L 0.124507 5.59969C 0.124507 3.65197 0.124499 1.94772 0 0.365197L 3.23699 0.365197L 3.36148 3.53024L 3.48599 3.53024C 3.85948 2.43465 4.48198 1.58252 5.35348 0.852127C 6.22497 0.243465 7.09646 9.28745e-07 8.09246 9.28745e-07C 8.46596 9.28745e-07 8.71496 -9.34187e-07 9.08846 0.121732L 9.08846 3.65198L 9.21295 3.65198Z" transform="translate(189.69 36.1545)" fill="white"/>
</g>
<g id="Vector_11">
<path d="M 15.0644 7.91261C 15.0644 8.52127 15.0644 9.12993 14.9399 9.61686L 3.61049 9.61686C 3.61049 11.3211 4.23299 12.5384 5.22898 13.3906C 6.22498 14.121 7.46997 14.6079 8.96396 14.6079C 10.707 14.6079 12.2009 14.3644 13.5704 13.8775L 14.1929 16.4339C 12.5744 17.1643 10.7069 17.4077 8.46595 17.4077C 5.85147 17.4077 3.73498 16.6773 2.24099 15.0948C 0.746993 13.634 -7.59884e-06 11.5646 -7.59884e-06 9.0082C -7.59884e-06 6.45182 0.747004 4.38237 2.1165 2.67811C 3.61049 0.852127 5.60246 9.28745e-07 8.09245 9.28745e-07C 10.5824 9.28745e-07 12.4499 0.852127 13.6949 2.67811C 14.5664 4.01717 15.0644 5.84316 15.0644 7.91261ZM 11.454 6.93875C 11.454 5.84316 11.2049 4.8693 10.7069 4.1389C 10.0845 3.16504 9.08846 2.55638 7.71897 2.55638C 6.47398 2.55638 5.47797 3.04331 4.73097 4.01717C 4.10848 4.8693 3.73499 5.72143 3.61049 6.93875L 11.454 6.93875Z" transform="translate(200.77 36.1545)" fill="white"/>
</g>
<g id="Vector_12">
<path d="M 0.249 0.852128C 0.622498 0.608663 1.12049 0.365198 1.61849 0.243465C 2.11649 0.121733 2.73899 -4.64372e-07 3.36148 -4.64372e-07C 4.48198 -4.64372e-07 5.35348 0.243465 5.97597 0.730395C 6.59847 1.21732 6.97196 1.94772 6.97196 2.79985C 6.97196 3.53024 6.72296 4.1389 6.34947 4.5041C 5.97597 4.99103 5.35348 5.2345 4.73098 5.47796C 5.10448 5.47796 5.47797 5.59969 5.72697 5.72143C 6.10047 5.84316 6.34947 6.08662 6.59847 6.33009C 6.84747 6.57355 7.09647 6.81702 7.22097 7.18222C 7.34547 7.54741 7.46996 7.79088 7.46996 8.27781C 7.46996 8.88647 7.34546 9.3734 7.09646 9.86033C 6.84746 10.3473 6.47397 10.5907 6.10047 10.9559C 5.72697 11.1994 5.22898 11.4429 4.73098 11.5646C 4.10848 11.6863 3.61048 11.6863 3.11248 11.6863C 2.61449 11.6863 1.99199 11.6863 1.49399 11.5646C 0.995996 11.4429 0.497998 11.3211 0 10.9559L 0.497999 9.61686C 0.746998 9.7386 1.12049 9.86033 1.61849 9.98206C 2.11649 10.1038 2.61449 10.2255 2.98799 10.2255C 3.73498 10.2255 4.35748 10.1038 4.85548 9.7386C 5.22898 9.3734 5.47797 8.88647 5.47797 8.27781C 5.47797 7.91261 5.35347 7.54741 5.22897 7.30395C 5.10447 7.06048 4.85547 6.81702 4.60647 6.69528C 4.35747 6.57355 3.98398 6.45182 3.73498 6.45182C 3.36148 6.45182 3.11249 6.33009 2.73899 6.33009L 1.86749 6.33009L 1.86749 4.99103L 2.61449 4.99103C 2.98798 4.99103 3.36149 4.99103 3.61048 4.8693C 3.85948 4.74757 4.23298 4.62583 4.35748 4.5041C 4.60648 4.38237 4.73098 4.1389 4.85548 3.89544C 4.97998 3.65197 5.10447 3.40851 5.10447 3.16504C 5.10447 2.67811 4.97997 2.31292 4.60647 1.94772C 4.23298 1.70425 3.73498 1.46079 3.11248 1.46079C 2.73899 1.46079 2.24099 1.58252 1.86749 1.70425C 1.49399 1.82599 1.12049 1.94772 0.746994 2.19118L 0.249 0.852128Z" transform="translate(75.7733 10.2253)" fill="white"/>
</g>
<g id="Vector_13">
<path d="M 5.10447 8.39954L 4.97998 7.42568C 4.35748 8.15608 3.61048 8.52127 2.48999 8.52127C 2.11649 8.52127 1.74299 8.39954 1.49399 8.27781C 1.24499 8.15608 0.871494 8.03434 0.746994 7.79088C 0.497996 7.54741 0.373494 7.30395 0.248995 7.06048C 0.124496 6.81702 0 6.45182 0 6.08662C 0 5.11276 0.373498 4.26064 1.24499 3.77371C 2.11649 3.28678 3.36149 3.04331 4.85548 3.04331L 4.85548 2.92158C 4.85548 1.82599 4.23298 1.33906 3.11248 1.33906C 2.24099 1.33906 1.61849 1.58252 0.871492 1.94772L 0.497999 0.730395C 1.245 0.243465 2.24099 0 3.36148 0C 5.60247 0 6.59847 1.09559 6.59847 3.40851L 6.59847 6.45182C 6.59847 7.30395 6.59847 7.91261 6.72297 8.39954L 5.10447 8.39954ZM 4.85548 4.26064C 3.85948 4.26064 2.98799 4.38237 2.48999 4.62583C 1.99199 4.8693 1.74299 5.35623 1.74299 5.84316C 1.74299 6.33009 1.86749 6.57355 2.11649 6.81702C 2.36548 7.06048 2.61449 7.18222 2.98799 7.18222C 3.23699 7.18222 3.48598 7.18222 3.61048 7.06048C 3.85948 6.93875 3.98398 6.81702 4.23298 6.69529L 4.60647 6.20836C 4.73097 5.96489 4.73098 5.72143 4.73098 5.59969L 4.73098 4.26064L 4.85548 4.26064Z" transform="translate(85.7334 13.3904)" fill="white"/>
</g>
<g id="Vector_14">
<path d="M 5.35347 -2.32186e-07L 5.35347 1.46079L 1.86749 1.46079L 1.86749 8.15607L -3.79942e-06 8.15607L -3.79942e-06 -2.32186e-07L 5.35347 -2.32186e-07Z" transform="translate(95.9423 13.6338)" fill="white"/>
</g>
<g id="Vector_15">
<path d="M 7.96796 4.26064C 7.96796 4.8693 7.84346 5.47796 7.71896 6.08662C 7.59446 6.57355 7.22097 7.06048 6.97197 7.42568C 6.59847 7.79088 6.22497 8.15608 5.85147 8.27781C 5.22898 8.64301 4.73097 8.643 4.23298 8.643C 3.11248 8.643 2.36548 8.27781 1.86749 7.42568L 1.86749 11.6863L -3.79942e-06 11.6863L -3.79942e-06 2.79985C -3.79942e-06 2.31292 -3.79942e-06 1.94772 -3.79942e-06 1.46079C -3.79942e-06 0.97386 -3.79942e-06 0.608662 -3.79942e-06 0.121732L 1.61849 0.121732L 1.74299 1.46079C 2.36549 0.48693 3.36149 -4.64372e-07 4.60648 -4.64372e-07C 5.10448 -4.64372e-07 5.60247 0.121733 5.97597 0.243465C 6.34947 0.48693 6.72297 0.730395 7.09647 1.09559C 7.46997 1.46079 7.59446 1.94772 7.84346 2.43465C 7.84346 3.16504 7.96796 3.65197 7.96796 4.26064ZM 6.10047 4.38237C 6.10047 4.01717 6.10047 3.65197 5.97597 3.28678C 5.85147 2.92158 5.72697 2.67811 5.60247 2.43465C 5.35347 2.19118 5.22897 1.94772 4.85547 1.82599C 4.60648 1.70425 4.23298 1.58252 3.98398 1.58252C 3.73498 1.58252 3.48599 1.58252 3.23699 1.70425C 2.98799 1.82599 2.73899 1.94772 2.61449 2.19118C 2.36549 2.43465 2.24099 2.55638 2.11649 2.92158C 1.99199 3.16504 1.99199 3.53024 1.99199 3.77371L 1.99199 5.11276C 1.99199 5.35623 1.99199 5.72143 2.11649 5.96489C 2.24099 6.20836 2.36548 6.45182 2.48998 6.69528C 2.61448 6.93875 2.86348 7.06048 3.11248 7.18221C 3.36148 7.30395 3.61048 7.30395 3.98398 7.30395C 4.73098 7.30395 5.22897 7.06048 5.60247 6.57355C 5.85147 5.96489 6.10047 5.2345 6.10047 4.38237Z" transform="translate(104.034 13.2686)" fill="white"/>
</g>
<g id="Vector_16">
<path d="M 8.09246 0.121732L 5.97597 5.84316C 5.47798 7.18221 4.97997 8.27781 4.48197 9.12994C 3.98398 9.98206 3.61048 10.5907 3.11248 10.9559C 2.48999 11.5646 1.74299 11.808 1.12049 11.9298L 0.622495 10.3473C 1.12049 10.2255 1.61849 9.98206 1.99199 9.61686C 2.48998 9.25167 2.73899 8.76474 2.98799 8.27781L 3.11248 7.91261L 2.98799 7.54741L -1.89971e-06 4.64372e-07L 1.99199 4.64372e-07L 3.61048 4.62583C 3.73498 4.8693 3.73498 5.11276 3.85948 5.35623C 3.98398 5.59969 3.98398 5.96489 4.10848 6.20836C 4.10848 6.08662 4.23298 5.84316 4.35748 5.47796C 4.48198 5.2345 4.48198 4.8693 4.60648 4.5041L 5.97597 4.64372e-07L 8.09246 4.64372e-07L 8.09246 0.121732Z" transform="translate(113.87 13.5122)" fill="white"/>
</g>
<g id="Vector_17">
<path d="M 1.49399 3.77371L 2.36549 3.77371C 2.98799 3.77371 3.48598 3.65197 3.85948 3.40851C 4.23298 3.16504 4.35748 2.92158 4.35748 2.55638C 4.35748 2.19118 4.23298 1.94772 3.85948 1.70425C 3.61048 1.46079 3.11248 1.33906 2.61449 1.33906C 2.24099 1.33906 1.99199 1.33906 1.6185 1.46079C 1.245 1.58252 0.995995 1.70425 0.622497 1.82599L 0.124497 0.608662C 0.622495 0.365197 1.1205 0.121732 1.6185 0.121732C 2.11649 0 2.61449 -4.64373e-07 3.11248 -4.64373e-07C 3.48598 -4.64373e-07 3.85948 0 4.23298 0.121732C 4.60648 0.243465 4.97997 0.365198 5.22897 0.48693C 5.47797 0.608663 5.72698 0.852127 5.97597 1.21732C 6.22497 1.46079 6.22497 1.82599 6.22497 2.31292C 6.22497 2.55638 6.22497 2.79985 6.10047 3.04331L 5.72697 3.53024L 5.10447 3.89544L 4.48198 4.1389C 4.73097 4.1389 4.97997 4.26064 5.22897 4.38237C 5.47797 4.5041 5.72698 4.62583 5.97597 4.74757C 6.22497 4.8693 6.34946 5.11276 6.47396 5.35623C 6.59846 5.59969 6.72297 5.84316 6.72297 6.08662C 6.72297 6.57355 6.59847 6.93875 6.34947 7.30395C 6.10047 7.66915 5.85147 7.91261 5.47797 8.03434C 5.10448 8.27781 4.73098 8.39954 4.23298 8.39954C 3.73498 8.52127 3.36149 8.52127 2.86349 8.52127C 2.36549 8.52127 1.86749 8.52127 1.36949 8.39954C 0.871494 8.27781 0.373498 8.15608 0 7.91261L 0.497999 6.69529C 0.746998 6.81702 1.12049 6.93875 1.49399 7.06048C 1.86749 7.18222 2.24099 7.18222 2.61449 7.18222C 3.23698 7.18222 3.73499 7.06048 4.10848 6.81702C 4.48198 6.57355 4.60647 6.33009 4.60647 5.96489C 4.60647 5.72143 4.60648 5.47796 4.48198 5.35623L 3.98398 4.99103C 3.73498 4.8693 3.48598 4.8693 3.23698 4.74757C 2.98798 4.74757 2.61449 4.74757 2.36549 4.74757L 1.49399 4.74757L 1.49399 3.77371Z" transform="translate(123.706 13.2686)" fill="white"/>
</g>
<g id="Vector_18">
<path d="M 1.99199 -2.32186e-07L 1.99199 2.92158C 1.99199 3.53024 1.99199 4.1389 1.99199 4.74757C 1.99199 5.2345 1.99199 5.84316 1.86749 6.45182C 2.11649 5.96489 2.24099 5.59969 2.48999 5.2345C 2.73898 4.8693 2.86348 4.38237 3.11248 4.01717L 5.22898 0.121733L 7.59446 0.121733L 7.59446 8.27781L 5.85148 8.27781L 5.85148 5.35623C 5.85148 4.74757 5.85148 4.1389 5.85148 3.53024C 5.85148 2.92158 5.85147 2.31292 5.97597 1.70425L 5.85148 1.70425C 5.60248 2.19118 5.47798 2.67811 5.22898 3.04331C 4.97998 3.40851 4.85548 3.77371 4.60648 4.1389C 4.23298 4.8693 3.85948 5.47796 3.48598 6.20836C 3.11249 6.93875 2.73899 7.54741 2.36549 8.27781L -1.89971e-06 8.27781L -1.89971e-06 0.121733L 1.99199 0.121733L 1.99199 -2.32186e-07Z" transform="translate(133.167 13.6338)" fill="white"/>
</g>
<g id="Vector_19">
<path d="M 6.84747 -2.32186e-07L 6.84747 1.46079L 4.35748 1.46079L 4.35748 8.15607L 2.48999 8.15607L 2.48999 1.46079L -1.89971e-06 1.46079L -1.89971e-06 -2.32186e-07L 6.84747 -2.32186e-07Z" transform="translate(143.75 13.6338)" fill="white"/>
</g>
<g id="Vector_20">
<path d="M 7.59447 3.89544L 7.59447 4.38237L 7.59447 4.74757L 1.99199 4.74757C 1.99199 5.47796 2.24099 6.08662 2.73899 6.57355C 3.23699 6.93875 3.85948 7.18222 4.60648 7.18222C 5.47797 7.18222 6.22497 7.06048 6.84746 6.81702L 7.09647 8.03434C 6.34947 8.39954 5.35347 8.52127 4.23298 8.52127C 3.61048 8.52127 2.98798 8.39954 2.48998 8.27781C 1.99199 8.03434 1.49399 7.79088 1.12049 7.42568C 0.746994 7.06048 0.497999 6.57355 0.249001 6.08662C 1.89229e-06 5.59969 -3.79942e-06 4.99103 -3.79942e-06 4.38237C -3.79942e-06 3.77371 0.124501 3.16504 0.249001 2.67811C 0.497999 2.19118 0.746996 1.70426 0.995995 1.33906C 1.36949 0.97386 1.74299 0.608663 2.24099 0.365198C 2.73899 0.121733 3.23699 0 3.85948 0C 4.35748 0 4.85548 0.121732 5.35347 0.243465C 5.72697 0.48693 6.10047 0.730394 6.47397 1.09559C 6.72297 1.46079 6.97197 1.82599 7.22096 2.31292C 7.46996 2.79985 7.59447 3.28678 7.59447 3.89544ZM 5.72698 3.40851C 5.72698 2.79985 5.60247 2.19118 5.22898 1.82599C 4.85548 1.46079 4.48198 1.21732 3.85948 1.21732C 3.36149 1.21732 2.86348 1.46079 2.48998 1.82599C 2.11649 2.19118 1.86749 2.79985 1.86749 3.40851L 5.72698 3.40851Z" transform="translate(152.59 13.3904)" fill="white"/>
</g>
<g id="Vector_21">
<path d="M 3.79942e-06 0.121732C 0.373502 0.121732 0.747 4.64372e-07 1.245 4.64372e-07C 1.743 4.64372e-07 2.241 4.64372e-07 2.86349 4.64372e-07C 3.23699 4.64372e-07 3.61048 4.64372e-07 3.98398 4.64372e-07C 4.35748 4.64372e-07 4.85548 0.121733 5.22897 0.243465C 5.60247 0.365198 5.97597 0.608662 6.22497 0.852127C 6.47397 1.09559 6.59847 1.46079 6.59847 1.94772C 6.59847 2.19118 6.59847 2.43465 6.47397 2.55638L 6.10047 3.04331L 5.60248 3.40851C 5.35348 3.53024 5.22898 3.53024 4.97998 3.65197C 5.60248 3.77371 6.10047 4.01717 6.47397 4.26064C 6.84747 4.62583 7.09646 4.99103 7.09646 5.59969C 7.09646 6.20835 6.97197 6.57355 6.59847 6.93875C 6.22498 7.30395 5.85148 7.54741 5.35348 7.66914C 4.85548 7.79088 4.35747 7.91261 3.85947 8.03434C 3.36148 8.03434 2.86349 8.15607 2.48999 8.15607C 1.99199 8.15607 1.61849 8.15607 1.12049 8.15607C 0.622493 8.15607 0.249003 8.15607 3.79942e-06 8.03434L 3.79942e-06 0.121732ZM 1.74299 3.40851L 2.73899 3.40851C 2.98799 3.40851 3.36148 3.40851 3.61048 3.28678C 3.85948 3.28678 4.10848 3.16504 4.23298 3.04331L 4.73098 2.67811L 4.85547 2.19118C 4.85547 1.82599 4.73098 1.58252 4.35748 1.33906C 3.98398 1.21732 3.48599 1.09559 2.86349 1.09559L 2.36548 1.09559C 2.24098 1.09559 1.99199 1.09559 1.74299 1.09559L 1.74299 3.40851ZM 1.74299 7.06048C 1.99199 7.06048 2.11649 7.06048 2.36548 7.06048L 2.86349 7.06048C 3.11249 7.06048 3.36148 7.06048 3.61048 7.06048C 3.85948 7.06048 4.10848 6.93875 4.35748 6.81702C 4.60648 6.69529 4.73097 6.57355 4.85547 6.45182C 4.97997 6.33009 5.10447 6.08662 5.10447 5.84316C 5.10447 5.35623 4.85547 4.99103 4.48197 4.8693C 4.10847 4.74757 3.48598 4.62583 2.73899 4.62583L 1.74299 4.62583L 1.74299 7.06048Z" transform="translate(167.654 13.5122)" fill="white"/>
</g>
</g>
</g>
</g>
</svg>

