<svg xmlns="http://www.w3.org/2000/svg" width="236" height="67" viewBox="0 0 236 67">
    <g fill="none">
        <g clip-rule="evenodd">
            <path fill="#000" fill-rule="evenodd" d="M233.294 64.177a5.68 5.68 0 0 0 1.709-4.02V6.72a5.677 5.677 0 0 0-1.698-4.042 5.853 5.853 0 0 0-4.111-1.68H6.809a5.888 5.888 0 0 0-4.104 1.69A5.714 5.714 0 0 0 .998 6.722v53.433a5.715 5.715 0 0 0 1.717 4.012 5.889 5.889 0 0 0 4.093 1.68h222.386c1.54 0 3.013-.602 4.1-1.67z"/>
            <path stroke="#fff" stroke-miterlimit="8" stroke-width="1.99536" d="M233.294 64.177a5.68 5.68 0 0 0 1.709-4.02V6.72a5.677 5.677 0 0 0-1.698-4.042 5.853 5.853 0 0 0-4.111-1.68H6.809a5.888 5.888 0 0 0-4.104 1.69A5.714 5.714 0 0 0 .998 6.722v53.433a5.715 5.715 0 0 0 1.717 4.012 5.889 5.889 0 0 0 4.093 1.68h222.386c1.54 0 3.013-.602 4.1-1.67z"/>
        </g>
        <path fill="#fff" d="M119.123 36.483a7.623 7.623 0 0 0-4.188 1.274 7.478 7.478 0 0 0-2.766 3.354 7.37 7.37 0 0 0-.415 4.307 7.43 7.43 0 0 0 2.075 3.81 7.585 7.585 0 0 0 3.869 2.031 7.644 7.644 0 0 0 4.36-.43 7.533 7.533 0 0 0 3.384-2.748 7.39 7.39 0 0 0 1.27-4.14 7.236 7.236 0 0 0-.538-2.885 7.313 7.313 0 0 0-1.643-2.444 7.42 7.42 0 0 0-2.484-1.61 7.496 7.496 0 0 0-2.924-.519zm0 11.962a4.608 4.608 0 0 1-2.607-.619 4.525 4.525 0 0 1-1.805-1.957 4.452 4.452 0 0 1-.379-2.62 4.48 4.48 0 0 1 1.178-2.379 4.575 4.575 0 0 1 2.328-1.313 4.616 4.616 0 0 1 2.673.204 4.55 4.55 0 0 1 2.095 1.652c.515.745.79 1.626.793 2.528.028.576-.06 1.15-.262 1.691a4.283 4.283 0 0 1-.909 1.457c-.399.42-.88.756-1.413.99a4.394 4.394 0 0 1-1.692.366zm-16.499-11.962a7.624 7.624 0 0 0-4.197 1.257 7.48 7.48 0 0 0-2.782 3.347 7.37 7.37 0 0 0-.43 4.31 7.43 7.43 0 0 0 2.068 3.818 7.585 7.585 0 0 0 3.868 2.042 7.645 7.645 0 0 0 4.364-.425 7.535 7.535 0 0 0 3.39-2.747 7.392 7.392 0 0 0 1.274-4.144 7.272 7.272 0 0 0-.546-2.87 7.347 7.347 0 0 0-1.635-2.435 7.456 7.456 0 0 0-2.466-1.614 7.532 7.532 0 0 0-2.908-.539zm0 11.962c-1.21 0-2.37-.475-3.225-1.32a4.475 4.475 0 0 1-1.336-3.184c0-1.194.48-2.34 1.336-3.184a4.591 4.591 0 0 1 3.225-1.319c1.21 0 2.37.475 3.226 1.32a4.475 4.475 0 0 1 1.335 3.183c0 1.195-.48 2.34-1.335 3.185a4.591 4.591 0 0 1-3.226 1.319zM82.99 38.699v3.167h7.662a6.775 6.775 0 0 1-1.568 4.046 7.99 7.99 0 0 1-2.713 1.768 8.073 8.073 0 0 1-3.202.553 8.572 8.572 0 0 1-6.022-2.462 8.355 8.355 0 0 1-2.495-5.946c0-2.23.897-4.369 2.495-5.945a8.572 8.572 0 0 1 6.022-2.463 8.29 8.29 0 0 1 5.772 2.251l2.245-2.216a11.235 11.235 0 0 0-3.754-2.485 11.351 11.351 0 0 0-4.442-.822c-1.54 0-3.064.3-4.486.881a11.735 11.735 0 0 0-3.803 2.51 11.566 11.566 0 0 0-2.542 3.754 11.447 11.447 0 0 0 0 8.86 11.565 11.565 0 0 0 2.542 3.754 11.734 11.734 0 0 0 3.803 2.51c1.422.581 2.947.88 4.486.88 1.435.074 2.87-.147 4.215-.648a10.425 10.425 0 0 0 3.596-2.263 10.267 10.267 0 0 0 2.375-3.498c.539-1.316.795-2.727.754-4.145 0-.66-.06-1.32-.178-1.97L82.99 38.7zm80.318 2.463a7.045 7.045 0 0 0-2.526-3.337 7.187 7.187 0 0 0-3.995-1.342 7.205 7.205 0 0 0-2.83.573c-.893.38-1.699.936-2.367 1.635a7.023 7.023 0 0 0-1.515 2.428 6.953 6.953 0 0 0-.414 2.822c-.025.98.152 1.955.518 2.866.367.911.916 1.74 1.615 2.436a7.383 7.383 0 0 0 2.452 1.617c.92.37 1.905.554 2.898.54a7.595 7.595 0 0 0 3.556-.876 7.484 7.484 0 0 0 2.715-2.431l-2.566-1.689a4.287 4.287 0 0 1-1.519 1.468 4.353 4.353 0 0 1-2.044.573 3.885 3.885 0 0 1-2.123-.6 3.813 3.813 0 0 1-1.44-1.652l9.906-3.976-.32-1.055zM153.01 43.66a4.067 4.067 0 0 1 .223-1.603c.181-.514.464-.988.832-1.394a4.166 4.166 0 0 1 1.312-.97 4.213 4.213 0 0 1 1.588-.396c.57-.032 1.136.1 1.63.382a2.9 2.9 0 0 1 1.15 1.202l-6.735 2.779zm-8.196 7.212h3.314V29.06h-3.314v21.812zm-5.416-12.77a5.241 5.241 0 0 0-1.819-1.234 5.298 5.298 0 0 0-2.172-.385 7.604 7.604 0 0 0-5.342 2.185 7.41 7.41 0 0 0-2.212 5.273 7.41 7.41 0 0 0 2.212 5.274 7.604 7.604 0 0 0 5.342 2.185c.753.02 1.5-.125 2.19-.423a5.129 5.129 0 0 0 1.801-1.301v1.09a3.753 3.753 0 0 1-.12 1.663 3.787 3.787 0 0 1-.83 1.452 3.85 3.85 0 0 1-1.378.961 3.892 3.892 0 0 1-1.663.287 4.277 4.277 0 0 1-2.306-.756 4.197 4.197 0 0 1-1.507-1.883l-2.886 1.161a7.055 7.055 0 0 0 2.661 3.222 7.193 7.193 0 0 0 4.038 1.176 6.956 6.956 0 0 0 2.954-.511 6.878 6.878 0 0 0 2.453-1.704 6.768 6.768 0 0 0 1.485-2.573 6.706 6.706 0 0 0 .235-2.952V36.94h-3.136v1.161zm-3.813 10.272a4.358 4.358 0 0 1-1.667-.373 4.31 4.31 0 0 1-1.39-.985 4.248 4.248 0 0 1-.892-1.44 4.206 4.206 0 0 1-.255-1.67 4.24 4.24 0 0 1 .243-1.686c.195-.54.497-1.036.889-1.459a4.345 4.345 0 0 1 1.393-1.004 4.394 4.394 0 0 1 1.68-.39c.57.027 1.128.167 1.642.411.514.245.973.59 1.349 1.013.376.424.66.918.839 1.454.178.535.244 1.1.196 1.661a4.102 4.102 0 0 1-.208 1.646 4.14 4.14 0 0 1-.843 1.434 4.201 4.201 0 0 1-1.345.993 4.25 4.25 0 0 1-1.63.395zM178.81 29.06h-7.768v21.882h3.277V42.64h4.634a6.922 6.922 0 0 0 4.862-1.99 6.745 6.745 0 0 0 2.015-4.8c0-1.801-.725-3.528-2.015-4.802a6.923 6.923 0 0 0-4.862-1.988h-.143zm.143 10.554h-4.775v-7.529h4.703c1.011 0 1.981.397 2.695 1.103a3.74 3.74 0 0 1 1.118 2.662 3.74 3.74 0 0 1-1.118 2.661 3.835 3.835 0 0 1-2.695 1.103h.072zm20.381-3.166a6.3 6.3 0 0 0-3.496.877 6.187 6.187 0 0 0-2.419 2.64l2.958 1.197a3.108 3.108 0 0 1 1.301-1.38 3.169 3.169 0 0 1 1.87-.379 3.21 3.21 0 0 1 2.387.66c.332.263.608.59.81.96.203.37.327.776.366 1.194v.247a7.199 7.199 0 0 0-3.562-.845c-3.137 0-6.38 1.724-6.38 4.926.032.678.201 1.343.498 1.955.297.613.716 1.16 1.23 1.61a5.19 5.19 0 0 0 3.795 1.255 4.72 4.72 0 0 0 2.313-.529 4.652 4.652 0 0 0 1.75-1.582v1.688h3.207V42.5c.01-.85-.163-1.69-.506-2.47a6.011 6.011 0 0 0-1.486-2.048 6.116 6.116 0 0 0-2.204-1.268 6.17 6.17 0 0 0-2.539-.265h.107zm-.499 11.997c-1.104 0-2.6-.528-2.6-1.865s1.888-2.322 3.563-2.322a5.974 5.974 0 0 1 3.028.739 3.96 3.96 0 0 1-1.29 2.485 4.054 4.054 0 0 1-2.629 1.033l-.072-.07zM217.65 37.01l-3.848 9.428-3.955-9.499h-3.564l5.915 13.264-3.385 7.353h3.563l9.087-20.617-3.813.07zm-29.79 14.072h3.314V29.06h-3.313v22.023z"/>
        <path fill="#70C8F2" d="M16.854 11.645a3.49 3.49 0 0 0-.82 2.428v38.699a3.49 3.49 0 0 0 .82 2.463L38.77 33.598v-.422L16.997 11.504l-.143.141z"/>
        <path fill="url(#a)" d="M0 7.158v.53l7.429 7.228 8.679-4.866a2.677 2.677 0 0 0 1.352-.959 2.622 2.622 0 0 0 0-3.125 2.677 2.677 0 0 0-1.352-.959L7.429 0 0 7.158z" transform="translate(38.912 26.034) scale(.99768)"/>
        <path fill="url(#b)" d="M0 21.863a2.917 2.917 0 0 0 3.572 0L29.537 7.405 22.037 0 0 21.863z" transform="translate(16.855 33.422) scale(.99768)"/>
        <path fill="url(#c)" d="M0 .706l22.108 21.828 7.43-7.406L3.677.6a3.929 3.929 0 0 0-2-.6A2.24 2.24 0 0 0 0 .707z" transform="translate(16.855 10.94) scale(.99768)"/>
        <path fill="#fff" d="M73.013 23.395h-1.319v-3.518h1.033a4.88 4.88 0 0 0 1.14-1.853 4.831 4.831 0 0 0 .215-2.157v-5.313h7.126v9.323h1.212v3.518H81.1V21.11h-8.088v2.286zm2.423-7.528a6.548 6.548 0 0 1-.998 4.01h5.38v-7.915h-4.382v3.905z"/>
        <path stroke="#fff" stroke-miterlimit="10" stroke-width=".149652" d="M73.013 23.395h-1.319v-3.518h1.033a4.88 4.88 0 0 0 1.14-1.853 4.831 4.831 0 0 0 .215-2.157v-5.313h7.126v9.323h1.212v3.518H81.1V21.11h-8.088v2.286zm2.423-7.528a6.548 6.548 0 0 1-.998 4.01h5.38v-7.915h-4.382v3.905z"/>
        <path fill="#fff" d="M93.038 19.842a5.314 5.314 0 0 1-1.793 1.194 5.37 5.37 0 0 1-2.126.39 5.262 5.262 0 0 1-2.111-.388 5.206 5.206 0 0 1-1.773-1.196 5.486 5.486 0 0 1-1.568-3.905 5.357 5.357 0 0 1 .385-2.109c.27-.67.671-1.281 1.183-1.796a5.21 5.21 0 0 1 1.77-1.132 5.262 5.262 0 0 1 2.078-.346 5.37 5.37 0 0 1 2.127.39 5.314 5.314 0 0 1 1.793 1.193 5.48 5.48 0 0 1 1.177 1.799c.27.67.402 1.386.39 2.107a5.486 5.486 0 0 1-1.567 3.905l.035-.106zm-6.806-.88a4.161 4.161 0 0 0 2.887 1.16 4.161 4.161 0 0 0 2.886-1.16c.403-.393.719-.866.927-1.387a4 4 0 0 0 .285-1.638 4 4 0 0 0-.285-1.638 4.042 4.042 0 0 0-.927-1.388 4.161 4.161 0 0 0-2.886-1.16 4.161 4.161 0 0 0-2.887 1.16c-.391.401-.697.875-.899 1.395a4.104 4.104 0 0 0-.276 1.631c-.02.556.074 1.111.276 1.63.202.52.508.995.9 1.396z"/>
        <path stroke="#fff" stroke-miterlimit="10" stroke-width=".149652" d="M93.038 19.842a5.314 5.314 0 0 1-1.793 1.194 5.37 5.37 0 0 1-2.126.39 5.262 5.262 0 0 1-2.111-.388 5.206 5.206 0 0 1-1.773-1.196 5.486 5.486 0 0 1-1.568-3.905 5.357 5.357 0 0 1 .385-2.109c.27-.67.671-1.281 1.183-1.796a5.21 5.21 0 0 1 1.77-1.132 5.262 5.262 0 0 1 2.078-.346 5.37 5.37 0 0 1 2.127.39 5.314 5.314 0 0 1 1.793 1.193 5.48 5.48 0 0 1 1.177 1.799c.27.67.402 1.386.39 2.107a5.486 5.486 0 0 1-1.532 3.8zm-6.806-.88a4.161 4.161 0 0 0 2.887 1.16 4.161 4.161 0 0 0 2.886-1.16c.403-.393.719-.866.927-1.387a4 4 0 0 0 .285-1.638 4 4 0 0 0-.285-1.638 4.042 4.042 0 0 0-.927-1.388 4.161 4.161 0 0 0-2.886-1.16 4.161 4.161 0 0 0-2.887 1.16c-.391.401-.697.875-.899 1.395a4.104 4.104 0 0 0-.276 1.631c-.02.556.074 1.111.276 1.63.202.52.508.995.9 1.396z"/>
        <path fill="#fff" d="M101.484 21.425a5.44 5.44 0 0 1-2.144-.388 5.386 5.386 0 0 1-1.811-1.195 5.412 5.412 0 0 1-1.183-1.797c-.27-.67-.4-1.387-.385-2.108a5.288 5.288 0 0 1 .412-2.082 5.344 5.344 0 0 1 1.199-1.76 5.423 5.423 0 0 1 1.798-1.162 5.478 5.478 0 0 1 2.114-.38 4.864 4.864 0 0 1 2.146.415 4.804 4.804 0 0 1 1.738 1.31l-.927.914a3.557 3.557 0 0 0-1.315-1.02 3.603 3.603 0 0 0-1.642-.317 4.072 4.072 0 0 0-1.625.29 4.03 4.03 0 0 0-1.371.91 3.97 3.97 0 0 0-.886 1.376 3.93 3.93 0 0 0-.252 1.611 4.07 4.07 0 0 0 .274 1.632c.202.52.51.994.902 1.394a4.145 4.145 0 0 0 2.958 1.161 4.25 4.25 0 0 0 1.812-.39 4.198 4.198 0 0 0 1.466-1.123l.927.915a4.448 4.448 0 0 1-1.818 1.372 5.51 5.51 0 0 1-2.387.527"/>
        <path stroke="#fff" stroke-miterlimit="10" stroke-width=".149652" d="M101.484 21.425a5.44 5.44 0 0 1-2.144-.388 5.386 5.386 0 0 1-1.811-1.195 5.412 5.412 0 0 1-1.183-1.797c-.27-.67-.4-1.387-.385-2.108a5.288 5.288 0 0 1 .412-2.082 5.344 5.344 0 0 1 1.199-1.76 5.423 5.423 0 0 1 1.798-1.162 5.478 5.478 0 0 1 2.114-.38 4.864 4.864 0 0 1 2.146.415 4.804 4.804 0 0 1 1.738 1.31l-.927.914a3.557 3.557 0 0 0-1.315-1.02 3.603 3.603 0 0 0-1.642-.317 4.072 4.072 0 0 0-1.625.29 4.03 4.03 0 0 0-1.371.91 3.97 3.97 0 0 0-.886 1.376 3.93 3.93 0 0 0-.252 1.611 4.07 4.07 0 0 0 .274 1.632c.202.52.51.994.902 1.394a4.145 4.145 0 0 0 2.958 1.161 4.25 4.25 0 0 0 1.812-.39 4.198 4.198 0 0 0 1.466-1.123l.927.915a4.449 4.449 0 0 1-1.818 1.372c-.753.316-1.57.46-2.387.422z"/>
        <path fill="#fff" d="M111.212 21.18h-1.354v-9.218H106.9v-1.267h7.305v1.267h-2.993v9.217z"/>
        <path stroke="#fff" stroke-miterlimit="10" stroke-width=".149652" d="M111.212 21.18h-1.354v-9.218H106.9v-1.267h7.305v1.267h-2.993v9.217z"/>
        <path fill="#fff" d="M123.577 10.554l-4.027 8.972a2.674 2.674 0 0 1-.938 1.344 2.73 2.73 0 0 1-1.556.555 2.337 2.337 0 0 1-1.034-.316l.357-1.232c.234.052.478.052.712 0 .246.064.504.064.749 0a2.18 2.18 0 0 0 .463-.668l.392-.844-3.599-7.81h1.604l2.636 6.015 2.637-6.016h1.604z"/>
        <path stroke="#fff" stroke-miterlimit="10" stroke-width=".149652" d="M123.577 10.554l-4.027 8.972a2.674 2.674 0 0 1-.938 1.344 2.73 2.73 0 0 1-1.556.555 2.337 2.337 0 0 1-1.034-.316l.357-1.232c.234.052.478.052.712 0 .246.064.504.064.749 0a2.18 2.18 0 0 0 .463-.668l.392-.844-3.599-7.81h1.604l2.636 6.015 2.637-6.016h1.604z"/>
        <path fill="#fff" d="M125.109 21.18V10.694h7.697V21.18h-1.354v-9.217h-4.953v9.217h-1.39z"/>
        <path stroke="#fff" stroke-miterlimit="10" stroke-width=".149652" d="M125.109 21.18V10.694h7.697V21.18h-1.354v-9.217h-4.953v9.217h-1.39z"/>
        <path fill="#fff" d="M135.264 21.18V10.694h1.354v4.503h5.31v-4.503h1.39V21.18h-1.39v-4.75h-5.31v4.75h-1.354z"/>
        <path stroke="#fff" stroke-miterlimit="10" stroke-width=".149652" d="M135.264 21.18V10.694h1.354v4.503h5.31v-4.503h1.39V21.18h-1.39v-4.75h-5.31v4.75h-1.354z"/>
        <path fill="#fff" d="M154.435 19.842c-.5.516-1.104.924-1.773 1.196a5.262 5.262 0 0 1-2.111.387 5.37 5.37 0 0 1-2.127-.389 5.314 5.314 0 0 1-1.793-1.194 5.486 5.486 0 0 1-1.568-3.905 5.357 5.357 0 0 1 .385-2.109c.27-.67.672-1.281 1.183-1.796a5.596 5.596 0 0 1 3.902-1.58c1.46 0 2.862.568 3.902 1.58a5.48 5.48 0 0 1 1.177 1.799c.27.67.402 1.385.39 2.106a5.486 5.486 0 0 1-1.567 3.905zm-6.77-.88a4.161 4.161 0 0 0 2.886 1.16 4.161 4.161 0 0 0 2.886-1.16 4.104 4.104 0 0 0 1.176-3.026 4.104 4.104 0 0 0-.277-1.63 4.145 4.145 0 0 0-.899-1.395 4.161 4.161 0 0 0-2.886-1.16 4.161 4.161 0 0 0-2.887 1.16 4.182 4.182 0 0 0-.915 1.392 4.14 4.14 0 0 0-.296 1.634 4.14 4.14 0 0 0 .296 1.634c.208.52.52.993.915 1.392z"/>
        <path stroke="#fff" stroke-miterlimit="10" stroke-width=".149652" d="M154.435 19.842c-.5.516-1.104.924-1.773 1.196a5.262 5.262 0 0 1-2.111.387 5.37 5.37 0 0 1-2.127-.389 5.314 5.314 0 0 1-1.793-1.194 5.486 5.486 0 0 1-1.568-3.905 5.357 5.357 0 0 1 .385-2.109c.27-.67.672-1.281 1.183-1.796a5.596 5.596 0 0 1 3.902-1.58c1.46 0 2.862.568 3.902 1.58a5.48 5.48 0 0 1 1.177 1.799c.27.67.402 1.385.39 2.106a5.486 5.486 0 0 1-1.567 3.905zm-6.77-.88a4.161 4.161 0 0 0 2.886 1.16 4.161 4.161 0 0 0 2.886-1.16 4.104 4.104 0 0 0 1.176-3.026 4.104 4.104 0 0 0-.277-1.63 4.145 4.145 0 0 0-.899-1.395 4.161 4.161 0 0 0-2.886-1.16 4.161 4.161 0 0 0-2.887 1.16 4.182 4.182 0 0 0-.915 1.392 4.14 4.14 0 0 0-.296 1.634 4.14 4.14 0 0 0 .296 1.634c.208.52.52.993.915 1.392z"/>
        <path fill="#fff" d="M161.597 21.109V10.554h3.848c.794-.02 1.563.27 2.138.81a2.505 2.505 0 0 1 .926 2.04c.007.463-.13.917-.391 1.302a2.521 2.521 0 0 1-1.033.88c.51.171.957.49 1.282.914.329.424.505.944.5 1.478a2.747 2.747 0 0 1-.962 2.146 3.302 3.302 0 0 1-2.246.844l-4.062.14zm1.354-5.981h2.494a1.622 1.622 0 0 0 1.248-.528c.282-.296.447-.684.463-1.09a1.566 1.566 0 0 0-.463-1.126 1.568 1.568 0 0 0-1.176-.493h-2.566v3.237zm0 4.679h2.744a1.658 1.658 0 0 0 1.283-.528c.295-.305.472-.704.499-1.125a1.713 1.713 0 0 0-.5-1.161 1.818 1.818 0 0 0-1.318-.563h-2.708v3.377z"/>
        <path stroke="#fff" stroke-miterlimit="10" stroke-width=".149652" d="M161.597 21.109V10.554h3.848c.794-.02 1.563.27 2.138.81a2.505 2.505 0 0 1 .926 2.04c.007.463-.13.917-.391 1.302a2.521 2.521 0 0 1-1.033.88c.51.171.957.49 1.282.914.329.424.505.944.5 1.478a2.747 2.747 0 0 1-.962 2.146 3.302 3.302 0 0 1-2.246.844l-4.062.14zm1.354-5.981h2.494a1.622 1.622 0 0 0 1.248-.528c.282-.296.447-.684.463-1.09a1.566 1.566 0 0 0-.463-1.126 1.568 1.568 0 0 0-1.176-.493h-2.566v3.237zm0 4.679h2.744a1.658 1.658 0 0 0 1.283-.528c.295-.305.472-.704.499-1.125a1.713 1.713 0 0 0-.5-1.161 1.818 1.818 0 0 0-1.318-.563h-2.708v3.377z"/>
    </g>
    <defs>
        <linearGradient id="a" x2="1" gradientTransform="matrix(18.0724 0 0 17.8432 0 -1.516)" gradientUnits="userSpaceOnUse">
            <stop stop-color="#FFE000"/>
            <stop offset=".42" stop-color="#F9BB00"/>
            <stop offset=".78" stop-color="#F5A300"/>
            <stop offset="1" stop-color="#F49A00"/>
        </linearGradient>
        <linearGradient id="b" x2="1" gradientTransform="matrix(29.6088 0 0 29.2332 0 -3.332)" gradientUnits="userSpaceOnUse">
            <stop stop-color="#E6393D"/>
            <stop offset="1" stop-color="#C70E66"/>
        </linearGradient>
        <linearGradient id="c" x2="1" gradientTransform="matrix(29.6088 0 0 29.2332 0 -3.332)" gradientUnits="userSpaceOnUse">
            <stop stop-color="#229866"/>
            <stop offset=".15" stop-color="#339F64"/>
            <stop offset=".52" stop-color="#5BAE5E"/>
            <stop offset=".82" stop-color="#73B85B"/>
            <stop offset="1" stop-color="#7CBB5A"/>
        </linearGradient>
    </defs>
</svg>
