<svg xmlns="http://www.w3.org/2000/svg" width="290" height="41" viewBox="0 0 290 41">
    <g fill="none">
        <path fill="#fff" d="M30.252 24.275V14.91h-5.01v17.107h2.41l9.923-9.366v9.366h5.106V14.91h-2.505l-9.924 9.366zM45.379 19.4h5.78v12.616h5.203V19.401h5.78v-4.492H45.38v4.492zM13.103 28.098c-4.72 0-7.804-3.44-7.804-8.028 0-4.588 3.18-8.315 7.515-8.315 1.252 0 2.698.096 3.854.67v4.3h4.624V9.653c-2.505-1.816-5.395-2.772-8.285-2.772C5.01 6.977 0 13.093 0 20.07c.096 7.359 4.336 12.998 12.621 12.998 3.276 0 6.455-1.052 9.25-3.25l-3.084-3.727c-1.349 1.051-3.179 2.007-5.684 2.007zM70.332 24.275V14.91h-5.01v17.107h2.409l9.923-9.366v9.366h5.01V14.91h-2.408l-9.924 9.366zM124.093 13.762c-5.396 0-9.924 4.396-9.924 9.748 0 5.257 4.528 9.749 9.924 9.749 5.491 0 10.02-4.397 10.02-9.749s-4.529-9.748-10.02-9.748zm0 14.718c-2.602 0-5.01-2.294-5.01-4.97 0-2.676 2.408-5.065 5.01-5.065 2.89 0 5.202 2.39 5.202 5.065 0 2.676-2.312 4.97-5.202 4.97zM106.558 14.91L99.14 26.377l-7.515-11.469H89.12l-3.083 17.107h4.913l1.445-8.314 5.3 8.314h2.89l5.202-8.314 1.542 8.314h4.914l-3.18-17.107h-2.505zM147.601 14.622c-2.12 0-5.01 1.052-6.551 4.014 1.349-7.454 10.02-6.212 13.103-9.174L151.84 5.83c-2.41 1.242-4.914 1.816-7.226 2.771-5.3 2.103-7.708 6.5-7.708 12.711 0 7.837 3.276 11.851 10.116 11.851 6.07 0 9.346-4.3 9.442-9.652 0-5.735-3.372-8.889-8.864-8.889zm-.77 13.858c-3.662 0-5.203-2.771-5.203-6.02 0 0 1.734-3.441 5.588-3.441 2.698 0 4.528 1.816 4.528 4.492 0 3.536-2.794 4.97-4.913 4.97zM187.777 14.91l-8.864 17.106h5.395l4.529-9.27 4.528 9.27h5.684l-8.767-17.107h-2.505zM164.654 24.275V14.91h-5.01v17.107h2.505l9.827-9.366v9.366h5.106V14.91h-2.504l-9.924 9.366z"/>
        <g>
            <path fill="#000" d="M30.252 24.275V14.91h-5.01v17.107h2.41l9.923-9.366v9.366h5.106V14.91h-2.505l-9.924 9.366zM45.379 19.4h5.78v12.616h5.203V19.401h5.78v-4.492H45.38v4.492zM13.103 28.098c-4.72 0-7.804-3.44-7.804-8.028 0-4.588 3.18-8.315 7.515-8.315 1.252 0 2.698.096 3.854.67v4.3h4.624V9.653c-2.505-1.816-5.395-2.772-8.285-2.772C5.01 6.977 0 13.093 0 20.07c.096 7.359 4.336 12.998 12.621 12.998 3.276 0 6.455-1.052 9.25-3.25l-3.084-3.727c-1.349 1.051-3.179 2.007-5.684 2.007zM70.332 24.275V14.91h-5.01v17.107h2.409l9.923-9.366v9.366h5.01V14.91h-2.408l-9.924 9.366zM124.093 13.762c-5.396 0-9.924 4.396-9.924 9.748 0 5.257 4.528 9.749 9.924 9.749 5.491 0 10.02-4.397 10.02-9.749s-4.529-9.748-10.02-9.748zm0 14.718c-2.602 0-5.01-2.294-5.01-4.97 0-2.676 2.408-5.065 5.01-5.065 2.89 0 5.202 2.39 5.202 5.065 0 2.676-2.312 4.97-5.202 4.97zM106.558 14.91L99.14 26.377l-7.515-11.469H89.12l-3.083 17.107h4.913l1.445-8.314 5.3 8.314h2.89l5.202-8.314 1.542 8.314h4.914l-3.18-17.107h-2.505zM147.601 14.622c-2.12 0-5.01 1.052-6.551 4.014 1.349-7.454 10.02-6.212 13.103-9.174L151.84 5.83c-2.41 1.242-4.914 1.816-7.226 2.771-5.3 2.103-7.708 6.5-7.708 12.711 0 7.837 3.276 11.851 10.116 11.851 6.07 0 9.346-4.3 9.442-9.652 0-5.735-3.372-8.889-8.864-8.889zm-.77 13.858c-3.662 0-5.203-2.771-5.203-6.02 0 0 1.734-3.441 5.588-3.441 2.698 0 4.528 1.816 4.528 4.492 0 3.536-2.794 4.97-4.913 4.97zM187.777 14.91l-8.864 17.106h5.395l4.529-9.27 4.528 9.27h5.684l-8.767-17.107h-2.505zM164.654 24.275V14.91h-5.01v17.107h2.505l9.827-9.366v9.366h5.106V14.91h-2.504l-9.924 9.366z"/>
        </g>
        <g>
            <path fill="#F29129" d="M231.325 35.552v4.397c0 1.051 1.253 1.051 1.253 1.051h9.73s1.253 0 1.253-1.051v-4.397h.29c.385 0 .577-.286.577-.573v-4.587c0-.956-.096-1.147-.674-1.53l-6.359-4.013-6.359 4.013c-.481.383-.674.574-.674 1.53v4.587c0 .382.193.573.578.573h.385zm7.034-1.338h-1.542V32.4c0-.383.29-.765.675-.765h.192c.386 0 .771.382.771.765v1.815h-.096zm1.252-1.815c0-.383.29-.765.77-.765h.097c.386 0 .675.382.675.765v1.815h-1.638V32.4h.096zm0 3.822c0-.382.29-.764.77-.764h.097c.386 0 .675.382.675.764v1.816h-1.638v-1.816h.096zm-2.12-8.983c.675 0 1.157.478 1.157 1.147s-.482 1.146-1.156 1.146c-.675 0-1.06-.477-1.06-1.146 0-.67.385-1.147 1.06-1.147zm-3.757 5.16c0-.382.29-.764.77-.764h.097c.386 0 .771.382.771.765v1.815h-1.638V32.4zm0 3.823c0-.382.29-.764.77-.764h.097c.386 0 .771.382.771.764v1.816h-1.638v-1.816z"/>
            <path fill="#EA5A35" d="M227.472 27.333c.578 0 1.156-.286 1.156-1.242V14.049l-6.84-2.867-6.841 2.867v12.137c0 1.147 1.156 1.147 1.156 1.147h11.369zm-3.469-10.99c0-.192.193-.383.386-.383h1.445c.193 0 .385.191.385.383v1.433c0 .191-.192.382-.385.382h-1.445c-.193 0-.386-.19-.386-.382v-1.433zm0 3.345c0-.192.193-.383.386-.383h1.445c.193 0 .385.191.385.383v1.433c0 .191-.192.382-.385.382h-1.445c-.193 0-.386-.19-.386-.382v-1.433zm-3.372-3.345c0-.192.193-.383.386-.383h1.445c.193 0 .385.191.385.383v1.433c0 .191-.192.382-.385.382h-1.445c-.193 0-.386-.19-.386-.382v-1.433zm0 3.345c0-.192.193-.383.386-.383h1.445c.193 0 .385.191.385.383v1.433c0 .191-.192.382-.385.382h-1.445c-.193 0-.386-.19-.386-.382v-1.433zm0 3.345c0-.192.193-.383.386-.383h1.445c.193 0 .385.191.385.383v1.433c0 .191-.192.382-.385.382h-1.445c-.193 0-.386-.19-.386-.382v-1.433zm-3.275-6.69c0-.192.192-.383.385-.383h1.445c.193 0 .386.191.386.383v1.433c0 .191-.193.382-.386.382h-1.445c-.193 0-.385-.19-.385-.382v-1.433zm0 3.345c0-.192.192-.383.385-.383h1.445c.193 0 .386.191.386.383v1.433c0 .191-.193.382-.386.382h-1.445c-.193 0-.385-.19-.385-.382v-1.433zM273.814 39.662v-9.08h.385c.386 0 .482-.286.482-.668v-.67c0-.286-.289-.573-.578-.573h-1.541c-2.602 0-2.024-3.918-5.3-3.918-3.275 0-2.697 3.918-5.298 3.918h-1.542c-.385 0-.578.287-.578.574v.669c0 .382.096.669.482.669h.385v8.983c0 1.338 1.253 1.243 1.349 1.243h10.309c.193.095 1.445.095 1.445-1.147zm-7.708-.956h-1.83v-2.102c0-.383.385-.765.867-.765h.193c.385 0 .77.382.77.765v2.102zm0-4.683h-1.83v-2.007a.86.86 0 0 1 .867-.86h.193c.385 0 .77.382.77.86v2.007zm1.06-5.352c-.674 0-1.06-.478-1.06-1.051s.482-1.051 1.06-1.051c.578 0 1.06.478 1.06 1.051s-.482 1.051-1.06 1.051zm2.89 10.035h-1.83v-2.102c0-.383.385-.765.867-.765h.193c.385 0 .867.382.867.765v2.102h-.096zm0-4.683h-1.83v-2.007a.86.86 0 0 1 .867-.86h.193c.385 0 .867.382.867.86v2.007h-.096z"/>
            <path fill="#F29129" d="M289.036 25.9v-8.315h.29c.48 0 .673-.287.673-.573v-.67h-.481c-.964 0-2.313-1.05-2.409-3.153v-.096c0-.382-.289-.764-.77-.86v-.382a.525.525 0 0 0 .288-.478.656.656 0 0 0-.674-.67c-.29 0-.578.288-.578.67 0 .191.096.382.289.478v.382a.92.92 0 0 0-.675.86v.574h-4.239v-.574c0-.382-.289-.764-.77-.86v-.382a.525.525 0 0 0 .289-.478c0-.382-.29-.67-.579-.67a.656.656 0 0 0-.674.67c0 .191.096.382.29.478v.382c-.386.096-.772.478-.772.86v.096c-.096 2.102-1.445 3.154-2.408 3.154h-.482v.669c0 .286.096.573.674.573h.29V25.9c0 1.051.674 1.529 1.348 1.529h9.827c.675-.096 1.253-.478 1.253-1.53zm-7.997-3.919h-1.638v-3.44c0-.478.386-.765.868-.765.385 0 .77.382.77.765v3.44zm2.602 0h-1.638v-3.44c0-.478.385-.765.867-.765s.77.382.77.765v3.44zm2.505 0h-1.638v-3.44c0-.478.385-.765.77-.765.482 0 .868.382.868.765v3.44zM247.8 27.333h9.731s1.252.096 1.252-1.242v-5.83c-1.348 0-1.541 1.53-1.541 1.53V8.983L252.617 0l-4.528 8.984v12.902s-.096-1.53-1.445-1.53v6.022c0 .955 1.156.955 1.156.955zm4.817-6.307c-1.83 0-3.275-1.434-3.275-3.25 0-1.911 1.445-3.345 3.275-3.345 1.831 0 3.373 1.434 3.373 3.345 0 1.72-1.446 3.25-3.373 3.25zm2.313-11.373c0-.383.289-.67.674-.67h.096c.386 0 .675.287.675.67v3.058h-1.445V9.653zm-2.987 0c0-.383.289-.67.674-.67h.097c.385 0 .674.287.674.67v3.058h-1.445V9.653zm-2.987 0c0-.383.386-.67.675-.67h.096c.385 0 .674.287.674.67v3.058h-1.445V9.653z"/>
            <path fill="#F29129" d="M252.714 15.674c-1.156 0-2.023.955-2.023 2.102 0 1.147.867 2.007 2.023 2.007a2.027 2.027 0 0 0 2.024-2.007c0-1.242-.868-2.102-2.024-2.102z"/>
        </g>
    </g>
</svg>
